<svg width="285" height="86" viewBox="0 0 285 86" fill="none" xmlns="http://www.w3.org/2000/svg">
<path fill-rule="evenodd" clip-rule="evenodd" d="M45.9 78C64.9538 78 80.4 62.5538 80.4 43.5C80.4 24.4462 64.9538 9 45.9 9C26.8462 9 11.4 24.4462 11.4 43.5C11.4 62.5538 26.8462 78 45.9 78ZM45.9 73C62.1924 73 75.4 59.7924 75.4 43.5C75.4 27.2076 62.1924 14 45.9 14C29.6076 14 16.4 27.2076 16.4 43.5C16.4 59.7924 29.6076 73 45.9 73Z" fill="#161616"/>
<path d="M19.4 12C16.6386 12 14.4 14.2386 14.4 17V67C14.4 69.7614 16.6386 72 19.4 72H25.4C28.1614 72 30.4 69.7614 30.4 67V37.5118L42.9772 50.089C44.9298 52.0416 48.0956 52.0416 50.0482 50.089L54.2909 45.8464C54.5762 45.561 54.8198 45.2498 55.0218 44.9202L62.4 37.542V67C62.4 69.7614 64.6386 72 67.4 72H73.4C76.1614 72 78.4 69.7614 78.4 67V17C78.4 14.2386 76.1614 12 73.4 12H67.4C65.7566 12 64.2985 12.7928 63.3871 14.0168C63.1742 14.1709 62.9708 14.3438 62.779 14.5355L46.4151 30.8995L30.2492 14.7337C30.0072 14.4916 29.7465 14.2796 29.4718 14.0976C28.5651 12.8278 27.0792 12 25.4 12H19.4Z" fill="#6590FF"/>
<g style="mix-blend-mode:hard-light" filter="url(#filter0_f_3_43)">
<ellipse cx="46" cy="43" rx="38.4" ry="36" fill="#128DFF" fill-opacity="0.176"/>
</g>
<g style="mix-blend-mode:hard-light" filter="url(#filter1_f_3_43)">
<path d="M29.1604 36.4849V38.5118V68C29.1604 70.2977 27.2977 72.1604 25 72.1604H19C16.7023 72.1604 14.8396 70.2977 14.8396 68V18C14.8396 15.7023 16.7023 13.8396 19 13.8396H25C26.3966 13.8396 27.6327 14.5269 28.3886 15.5855L28.4787 15.7117L28.608 15.7974C28.8363 15.9487 29.0534 16.1252 29.2556 16.3273L45.4214 32.4932L46.0151 33.0869L46.6088 32.4932L62.9727 16.1292L62.379 15.5355L62.9727 16.1292C63.1329 15.969 63.3024 15.825 63.4794 15.6969L63.5836 15.6214L63.6605 15.5182C64.4203 14.4978 65.6332 13.8396 67 13.8396H73C75.2977 13.8396 77.1604 15.7023 77.1604 18V68C77.1604 70.2977 75.2977 72.1604 73 72.1604H67C64.7023 72.1604 62.8396 70.2977 62.8396 68V38.542V36.5151L61.4063 37.9483L54.0281 45.3265L53.9578 45.3968L53.9059 45.4816C53.7382 45.7553 53.5355 46.0144 53.2972 46.2527L49.0546 50.4953C47.4298 52.1201 44.7956 52.1201 43.1708 50.4953L30.5937 37.9182L29.1604 36.4849Z" stroke="#0094FF" stroke-width="1.67917"/>
</g>
<g style="mix-blend-mode:hard-light" filter="url(#filter2_f_3_43)">
<path d="M30.7763 37.7355L28.9021 35.8612V38.5118V68C28.9021 70.1551 27.1551 71.9021 25 71.9021H19C16.8449 71.9021 15.0979 70.1551 15.0979 68V18C15.0979 15.8449 16.8449 14.0979 19 14.0979H25C26.3096 14.0979 27.4688 14.742 28.1783 15.7356L28.2962 15.9007L28.4653 16.0128C28.6793 16.1545 28.883 16.3201 29.0729 16.51L45.2387 32.6758L46.0151 33.4522L46.7914 32.6758L63.1554 16.3119L62.3859 15.5424L63.1554 16.3119C63.3059 16.1614 63.465 16.0263 63.6309 15.9061L63.7672 15.8075L63.8677 15.6725C64.5808 14.7148 65.7182 14.0979 67 14.0979H73C75.1551 14.0979 76.9021 15.8449 76.9021 18V68C76.9021 70.1551 75.1551 71.9021 73 71.9021H67C64.8449 71.9021 63.0979 70.1551 63.0979 68V38.542V35.8914L61.2237 37.7657L53.8454 45.1439L53.7535 45.2358L53.6856 45.3466C53.5285 45.6031 53.3384 45.8462 53.1145 46.07L48.8719 50.3127C47.348 51.8365 44.8774 51.8365 43.3535 50.3127L30.7763 37.7355Z" stroke="#0094FF" stroke-width="2.19583"/>
</g>
<g style="mix-blend-mode:hard-light" filter="url(#filter3_ddi_3_43)">
<path d="M29.1604 36.4849V38.5118V68C29.1604 70.2977 27.2977 72.1604 25 72.1604H19C16.7023 72.1604 14.8396 70.2977 14.8396 68V18C14.8396 15.7023 16.7023 13.8396 19 13.8396H25C26.3966 13.8396 27.6327 14.5269 28.3886 15.5855L28.4787 15.7117L28.608 15.7974C28.8363 15.9487 29.0534 16.1252 29.2556 16.3273L45.4214 32.4932L46.0151 33.0869L46.6088 32.4932L62.9727 16.1292L62.379 15.5355L62.9727 16.1292C63.1329 15.969 63.3024 15.825 63.4794 15.6969L63.5836 15.6214L63.6605 15.5182C64.4203 14.4978 65.6332 13.8396 67 13.8396H73C75.2977 13.8396 77.1604 15.7023 77.1604 18V68C77.1604 70.2977 75.2977 72.1604 73 72.1604H67C64.7023 72.1604 62.8396 70.2977 62.8396 68V38.542V36.5151L61.4063 37.9483L54.0281 45.3265L53.9578 45.3968L53.9059 45.4816C53.7382 45.7553 53.5355 46.0144 53.2972 46.2527L49.0546 50.4953C47.4298 52.1201 44.7956 52.1201 43.1708 50.4953L30.5937 37.9182L29.1604 36.4849Z" stroke="#00B3FF" stroke-opacity="0.2" stroke-width="1.67917"/>
</g>
<g filter="url(#filter4_f_3_43)">
<path d="M30.3653 38.1465L29.4833 37.2645V38.5118V68C29.4833 70.4761 27.4761 72.4833 25 72.4833H19C16.5239 72.4833 14.5167 70.4761 14.5167 68V18C14.5167 15.5239 16.5239 13.5167 19 13.5167H25C26.5053 13.5167 27.8374 14.258 28.6514 15.3978L28.7068 15.4755L28.7864 15.5282C29.0325 15.6913 29.2664 15.8815 29.4839 16.099L45.6497 32.2648L46.0151 32.6302L46.3804 32.2648L62.7444 15.9009L62.379 15.5355L62.7444 15.9009C62.9167 15.7285 63.0993 15.5734 63.29 15.4353L63.3542 15.3889L63.4015 15.3254C64.2196 14.2267 65.5268 13.5167 67 13.5167H73C75.4761 13.5167 77.4833 15.5239 77.4833 18V68C77.4833 70.4761 75.4761 72.4833 73 72.4833H67C64.5239 72.4833 62.5167 70.4761 62.5167 68V38.542V37.2947L61.6347 38.1767L54.2565 45.5549L54.2132 45.5981L54.1812 45.6503C54.0004 45.9455 53.7819 46.2246 53.5255 46.481L49.2829 50.7237C47.532 52.4745 44.6934 52.4745 42.9425 50.7237L30.3653 38.1465Z" stroke="#82D9FF" stroke-width="1.03333"/>
</g>
<g filter="url(#filter5_f_3_43)">
<path d="M30.1827 38.3292L29.7417 37.8882V38.5118V68C29.7417 70.6188 27.6188 72.7417 25 72.7417H19C16.3812 72.7417 14.2583 70.6188 14.2583 68V18C14.2583 15.3812 16.3812 13.2583 19 13.2583H25C26.5923 13.2583 28.0013 14.0429 28.8616 15.2477L28.8893 15.2865L28.9291 15.3129C29.1895 15.4855 29.4368 15.6866 29.6666 15.9163L45.8324 32.0822L46.0151 32.2648L46.1978 32.0822L62.5617 15.7182C62.7438 15.5362 62.9368 15.3721 63.1386 15.2261L63.1706 15.2028L63.1943 15.1711C64.059 14.0097 65.4417 13.2583 67 13.2583H73C75.6188 13.2583 77.7417 15.3812 77.7417 18V68C77.7417 70.6188 75.6188 72.7417 73 72.7417H67C64.3812 72.7417 62.2583 70.6188 62.2583 68V38.542V37.9183L61.8173 38.3593L54.4391 45.7375L54.4175 45.7592L54.4015 45.7852C54.2101 46.0976 53.9791 46.3928 53.7082 46.6637L49.4656 50.9063C47.6138 52.7581 44.6116 52.7581 42.7598 50.9063L30.1827 38.3292Z" stroke="white" stroke-width="0.516667"/>
</g>
<g filter="url(#filter6_d_3_43)">
<path d="M100.517 20.5455H105.068L109.875 32.2727H110.08L114.886 20.5455H119.438V38H115.858V26.6392H115.713L111.196 37.9148H108.759L104.241 26.5966H104.097V38H100.517V20.5455ZM122.478 38V20.5455H134.239V23.5881H126.168V27.7472H133.634V30.7898H126.168V34.9574H134.273V38H122.478ZM148.747 26.1875C148.628 25.7727 148.46 25.4062 148.244 25.0881C148.028 24.7642 147.764 24.4915 147.452 24.2699C147.145 24.0426 146.793 23.8693 146.395 23.75C146.003 23.6307 145.568 23.571 145.091 23.571C144.199 23.571 143.415 23.7926 142.739 24.2358C142.068 24.679 141.545 25.3239 141.17 26.1705C140.795 27.0114 140.608 28.0398 140.608 29.2557C140.608 30.4716 140.793 31.5057 141.162 32.358C141.531 33.2102 142.054 33.8608 142.73 34.3097C143.406 34.7528 144.205 34.9744 145.125 34.9744C145.96 34.9744 146.673 34.8267 147.264 34.5312C147.861 34.2301 148.315 33.8068 148.628 33.2614C148.946 32.7159 149.105 32.071 149.105 31.3267L149.855 31.4375H145.355V28.6591H152.659V30.858C152.659 32.392 152.335 33.7102 151.688 34.8125C151.04 35.9091 150.148 36.7557 149.011 37.3523C147.875 37.9432 146.574 38.2386 145.108 38.2386C143.472 38.2386 142.034 37.8778 140.795 37.1562C139.557 36.429 138.591 35.3977 137.898 34.0625C137.21 32.7216 136.866 31.1307 136.866 29.2898C136.866 27.875 137.071 26.6136 137.48 25.5057C137.895 24.392 138.474 23.4489 139.219 22.6761C139.963 21.9034 140.83 21.3153 141.818 20.9119C142.807 20.5085 143.878 20.3068 145.031 20.3068C146.02 20.3068 146.94 20.4517 147.793 20.7415C148.645 21.0256 149.401 21.429 150.06 21.9517C150.724 22.4744 151.267 23.0966 151.688 23.8182C152.108 24.5341 152.378 25.3239 152.497 26.1875H148.747ZM157.901 38H153.946L159.972 20.5455H164.727L170.744 38H166.79L162.418 24.5341H162.281L157.901 38ZM157.653 31.1392H166.994V34.0199H157.653V31.1392ZM172.845 38V20.5455H184.402V23.5881H176.536V27.7472H183.635V30.7898H176.536V38H172.845ZM190.575 20.5455V38H186.884V20.5455H190.575ZM193.611 38V20.5455H197.301V34.9574H204.784V38H193.611ZM207.228 20.5455H211.779L216.586 32.2727H216.79L221.597 20.5455H226.148V38H222.569V26.6392H222.424L217.907 37.9148H215.469L210.952 26.5966H210.808V38H207.228V20.5455ZM238.658 25.5653C238.589 24.8778 238.297 24.3437 237.78 23.9631C237.263 23.5824 236.561 23.392 235.675 23.392C235.072 23.392 234.564 23.4773 234.149 23.6477C233.734 23.8125 233.416 24.0426 233.195 24.3381C232.979 24.6335 232.871 24.9688 232.871 25.3438C232.859 25.6562 232.925 25.929 233.067 26.1619C233.214 26.3949 233.416 26.5966 233.672 26.767C233.928 26.9318 234.223 27.0767 234.558 27.2017C234.893 27.321 235.251 27.4233 235.632 27.5085L237.2 27.8835C237.962 28.054 238.661 28.2812 239.297 28.5653C239.933 28.8494 240.484 29.1989 240.95 29.6136C241.416 30.0284 241.777 30.517 242.033 31.0795C242.294 31.642 242.428 32.2869 242.433 33.0142C242.428 34.0824 242.155 35.0085 241.615 35.7926C241.081 36.571 240.308 37.1761 239.297 37.608C238.291 38.0341 237.078 38.2472 235.658 38.2472C234.249 38.2472 233.021 38.0312 231.976 37.5994C230.936 37.1676 230.124 36.5284 229.538 35.6818C228.959 34.8295 228.655 33.7756 228.626 32.5199H232.197C232.237 33.1051 232.405 33.5937 232.7 33.9858C233.001 34.3722 233.402 34.6648 233.902 34.8636C234.408 35.0568 234.979 35.1534 235.615 35.1534C236.24 35.1534 236.783 35.0625 237.243 34.8807C237.709 34.6989 238.07 34.446 238.325 34.1222C238.581 33.7983 238.709 33.4261 238.709 33.0057C238.709 32.6136 238.592 32.2841 238.359 32.017C238.132 31.75 237.797 31.5227 237.354 31.3352C236.916 31.1477 236.379 30.9773 235.743 30.8239L233.842 30.3466C232.371 29.9886 231.209 29.429 230.357 28.6676C229.504 27.9062 229.081 26.8807 229.087 25.5909C229.081 24.5341 229.362 23.6108 229.93 22.821C230.504 22.0312 231.291 21.4148 232.291 20.9716C233.291 20.5284 234.428 20.3068 235.7 20.3068C236.996 20.3068 238.126 20.5284 239.092 20.9716C240.064 21.4148 240.82 22.0312 241.359 22.821C241.899 23.6108 242.178 24.5256 242.195 25.5653H238.658Z" fill="#6590FF"/>
</g>
<g filter="url(#filter7_d_3_43)">
<path d="M100.598 68V53.4545H105.925C106.957 53.4545 107.812 53.625 108.489 53.9659C109.166 54.3021 109.672 54.759 110.009 55.3366C110.345 55.9096 110.513 56.5559 110.513 57.2756C110.513 57.8816 110.402 58.393 110.179 58.8097C109.956 59.2216 109.658 59.553 109.284 59.804C108.915 60.0502 108.508 60.2301 108.062 60.3438V60.4858C108.545 60.5095 109.017 60.6657 109.476 60.9545C109.94 61.2386 110.323 61.6435 110.626 62.169C110.929 62.6946 111.081 63.3338 111.081 64.0866C111.081 64.83 110.906 65.4976 110.555 66.0895C110.21 66.6766 109.675 67.143 108.95 67.4886C108.226 67.8295 107.3 68 106.173 68H100.598ZM102.793 66.1179H105.96C107.011 66.1179 107.764 65.9143 108.219 65.5071C108.673 65.0999 108.901 64.5909 108.901 63.9801C108.901 63.5208 108.785 63.0994 108.553 62.7159C108.321 62.3324 107.989 62.027 107.558 61.7997C107.132 61.5724 106.625 61.4588 106.038 61.4588H102.793V66.1179ZM102.793 59.7472H105.733C106.225 59.7472 106.668 59.6525 107.061 59.4631C107.459 59.2737 107.774 59.0085 108.006 58.6676C108.242 58.322 108.361 57.9148 108.361 57.446C108.361 56.8447 108.15 56.3404 107.729 55.9332C107.307 55.526 106.661 55.3224 105.79 55.3224H102.793V59.7472ZM118.109 68.2202C117.053 68.2202 116.144 67.9811 115.381 67.5028C114.624 67.0199 114.041 66.3546 113.634 65.5071C113.227 64.6596 113.023 63.6889 113.023 62.5952C113.023 61.4872 113.232 60.5095 113.648 59.6619C114.065 58.8097 114.652 58.1444 115.41 57.6662C116.167 57.188 117.06 56.9489 118.087 56.9489C118.916 56.9489 119.655 57.1027 120.303 57.4105C120.952 57.7135 121.475 58.1397 121.873 58.6889C122.275 59.2382 122.514 59.8797 122.59 60.6136H120.523C120.41 60.1023 120.149 59.6619 119.742 59.2926C119.34 58.9233 118.8 58.7386 118.123 58.7386C117.531 58.7386 117.013 58.8949 116.567 59.2074C116.127 59.5152 115.784 59.9555 115.538 60.5284C115.291 61.0966 115.168 61.7689 115.168 62.5455C115.168 63.3409 115.289 64.0275 115.531 64.6051C115.772 65.1828 116.113 65.6302 116.553 65.9474C116.998 66.2647 117.522 66.4233 118.123 66.4233C118.525 66.4233 118.89 66.3499 119.217 66.2031C119.548 66.0516 119.825 65.8362 120.048 65.5568C120.275 65.2775 120.433 64.9413 120.523 64.5483H122.59C122.514 65.2538 122.285 65.8835 121.901 66.4375C121.518 66.9915 121.004 67.4271 120.36 67.7443C119.721 68.0616 118.97 68.2202 118.109 68.2202ZM129.563 68.2202C128.488 68.2202 127.562 67.9905 126.786 67.5312C126.014 67.0672 125.417 66.4162 124.996 65.5781C124.579 64.7353 124.371 63.7481 124.371 62.6165C124.371 61.4991 124.579 60.5142 124.996 59.6619C125.417 58.8097 126.005 58.1444 126.757 57.6662C127.515 57.188 128.4 56.9489 129.414 56.9489C130.029 56.9489 130.626 57.0507 131.203 57.2543C131.781 57.4579 132.3 57.7775 132.759 58.2131C133.218 58.6487 133.58 59.2145 133.846 59.9105C134.111 60.6018 134.243 61.4422 134.243 62.4318V63.1847H125.571V61.5938H132.162C132.162 61.035 132.049 60.5402 131.821 60.1094C131.594 59.6738 131.275 59.3305 130.863 59.0795C130.455 58.8286 129.977 58.7031 129.428 58.7031C128.831 58.7031 128.31 58.8499 127.865 59.1435C127.425 59.4323 127.084 59.8111 126.843 60.2798C126.606 60.7438 126.488 61.2481 126.488 61.7926V63.0355C126.488 63.7647 126.615 64.3849 126.871 64.8963C127.132 65.4077 127.494 65.7983 127.958 66.0682C128.422 66.3333 128.964 66.4659 129.584 66.4659C129.987 66.4659 130.354 66.4091 130.685 66.2955C131.016 66.1771 131.303 66.0019 131.544 65.7699C131.786 65.5379 131.971 65.2514 132.098 64.9105L134.108 65.2727C133.947 65.8646 133.658 66.383 133.242 66.8281C132.83 67.2685 132.311 67.6117 131.686 67.858C131.066 68.0994 130.358 68.2202 129.563 68.2202ZM146.587 71.7145V53.4545H148.711V71.7145H146.587ZM146.587 68.2202C145.815 68.2202 145.112 68.0876 144.478 67.8224C143.843 67.5526 143.296 67.169 142.837 66.6719C142.378 66.1747 142.023 65.5805 141.772 64.8892C141.525 64.1979 141.402 63.4332 141.402 62.5952C141.402 61.7476 141.525 60.9782 141.772 60.2869C142.023 59.5956 142.378 59.0014 142.837 58.5043C143.296 58.0071 143.843 57.6236 144.478 57.3537C145.112 57.0838 145.815 56.9489 146.587 56.9489H147.113V68.2202H146.587ZM146.587 66.4304H146.885V58.7386H146.587C146.076 58.7386 145.631 58.8428 145.252 59.0511C144.873 59.2547 144.558 59.5365 144.307 59.8963C144.056 60.2514 143.867 60.661 143.739 61.125C143.616 61.589 143.554 62.0791 143.554 62.5952C143.554 63.2865 143.666 63.9233 143.888 64.5057C144.111 65.0833 144.447 65.5497 144.897 65.9048C145.346 66.2552 145.91 66.4304 146.587 66.4304ZM148.711 68.2202H148.178V56.9489H148.711C149.482 56.9489 150.185 57.0838 150.82 57.3537C151.454 57.6236 151.999 58.0071 152.453 58.5043C152.913 59.0014 153.266 59.5956 153.512 60.2869C153.763 60.9782 153.888 61.7476 153.888 62.5952C153.888 63.4332 153.763 64.1979 153.512 64.8892C153.266 65.5805 152.913 66.1747 152.453 66.6719C151.999 67.169 151.454 67.5526 150.82 67.8224C150.185 68.0876 149.482 68.2202 148.711 68.2202ZM148.711 66.4304C149.222 66.4304 149.667 66.331 150.046 66.1321C150.425 65.9285 150.739 65.6491 150.99 65.294C151.241 64.9342 151.428 64.5246 151.551 64.0653C151.675 63.6013 151.736 63.1113 151.736 62.5952C151.736 61.9086 151.625 61.2741 151.402 60.6918C151.185 60.1046 150.851 59.6335 150.401 59.2784C149.951 58.9186 149.388 58.7386 148.711 58.7386H148.405V66.4304H148.711ZM158.329 65.0241L163.137 57.0909H165.424V68H163.343V60.0597L158.556 68H156.248V57.0909H158.329V65.0241ZM167.42 68L167.413 66.1605H167.803C168.106 66.1605 168.36 66.0966 168.563 65.9688C168.772 65.8362 168.942 65.6136 169.075 65.3011C169.207 64.9886 169.309 64.5578 169.38 64.0085C169.451 63.4545 169.503 62.7585 169.536 61.9205L169.728 57.0909H177.342V68H175.261V58.9233H171.695L171.525 62.6307C171.482 63.5303 171.39 64.3163 171.248 64.9886C171.111 65.661 170.909 66.2221 170.644 66.6719C170.379 67.117 170.038 67.4508 169.621 67.6733C169.205 67.8911 168.698 68 168.102 68H167.42ZM181.772 60.8409H184.939C186.275 60.8409 187.302 61.1723 188.022 61.8352C188.741 62.4981 189.101 63.3527 189.101 64.3991C189.101 65.081 188.94 65.6941 188.618 66.2386C188.296 66.7831 187.825 67.214 187.205 67.5312C186.585 67.8438 185.829 68 184.939 68H180.174V57.0909H182.255V66.1676H184.939C185.55 66.1676 186.052 66.009 186.445 65.6918C186.838 65.3698 187.034 64.9602 187.034 64.4631C187.034 63.9375 186.838 63.509 186.445 63.1776C186.052 62.8414 185.55 62.6733 184.939 62.6733H181.772V60.8409ZM197.604 65.3722L201.127 57.0909H202.96L198.393 68H196.816L192.342 57.0909H194.153L197.604 65.3722ZM193.563 57.0909V68H191.482V57.0909H193.563ZM201.702 68V57.0909H203.769V68H201.702ZM208.197 60.8409H211.365C212.7 60.8409 213.728 61.1723 214.447 61.8352C215.167 62.4981 215.527 63.3527 215.527 64.3991C215.527 65.081 215.366 65.6941 215.044 66.2386C214.722 66.7831 214.251 67.214 213.631 67.5312C213.01 67.8438 212.255 68 211.365 68H206.599V57.0909H208.68V66.1676H211.365C211.976 66.1676 212.478 66.009 212.871 65.6918C213.264 65.3698 213.46 64.9602 213.46 64.4631C213.46 63.9375 213.264 63.509 212.871 63.1776C212.478 62.8414 211.976 62.6733 211.365 62.6733H208.197V60.8409ZM217.075 68V57.0909H219.199V68H217.075ZM233.464 65.3722L236.987 57.0909H238.819L234.252 68H232.675L228.201 57.0909H230.012L233.464 65.3722ZM229.423 57.0909V68H227.342V57.0909H229.423ZM237.562 68V57.0909H239.629V68H237.562ZM244.54 65.0241L249.348 57.0909H251.635V68H249.554V60.0597L244.767 68H242.459V57.0909H244.54V65.0241ZM254.49 72.0909V57.0909H256.564V58.8594H256.741C256.865 58.6321 257.042 58.3693 257.274 58.071C257.506 57.7727 257.828 57.5123 258.24 57.2898C258.652 57.0625 259.196 56.9489 259.874 56.9489C260.754 56.9489 261.54 57.1714 262.232 57.6165C262.923 58.0616 263.465 58.7031 263.858 59.5412C264.256 60.3793 264.455 61.3878 264.455 62.5668C264.455 63.7457 264.258 64.7566 263.865 65.5994C263.472 66.4375 262.932 67.0838 262.246 67.5384C261.559 67.9882 260.776 68.2131 259.895 68.2131C259.232 68.2131 258.69 68.1018 258.268 67.8793C257.852 67.6567 257.525 67.3963 257.288 67.098C257.052 66.7997 256.869 66.5346 256.741 66.3026H256.614V72.0909H254.49ZM256.571 62.5455C256.571 63.3125 256.682 63.9848 256.905 64.5625C257.127 65.1402 257.449 65.5923 257.871 65.919C258.292 66.241 258.808 66.402 259.419 66.402C260.054 66.402 260.584 66.2339 261.01 65.8977C261.436 65.5568 261.758 65.0952 261.976 64.5128C262.198 63.9304 262.31 63.2746 262.31 62.5455C262.31 61.8258 262.201 61.1795 261.983 60.6065C261.77 60.0336 261.448 59.5814 261.017 59.25C260.591 58.9186 260.058 58.7528 259.419 58.7528C258.804 58.7528 258.283 58.9115 257.857 59.2287C257.435 59.5459 257.116 59.9886 256.898 60.5568C256.68 61.125 256.571 61.7879 256.571 62.5455ZM270.009 68.2415C269.317 68.2415 268.692 68.1136 268.134 67.858C267.575 67.5975 267.132 67.2211 266.805 66.7287C266.483 66.2363 266.322 65.6326 266.322 64.9176C266.322 64.3021 266.441 63.7955 266.678 63.3977C266.914 63 267.234 62.6851 267.636 62.4531C268.039 62.2211 268.489 62.0459 268.986 61.9276C269.483 61.8092 269.99 61.7192 270.506 61.6577C271.159 61.5819 271.689 61.5204 272.097 61.473C272.504 61.4209 272.8 61.3381 272.984 61.2244C273.169 61.1108 273.261 60.9261 273.261 60.6705V60.6207C273.261 60.0005 273.086 59.5199 272.736 59.179C272.39 58.8381 271.874 58.6676 271.188 58.6676C270.473 58.6676 269.909 58.8262 269.497 59.1435C269.09 59.456 268.808 59.804 268.652 60.1875L266.656 59.733C266.893 59.0701 267.239 58.535 267.693 58.1278C268.152 57.7159 268.68 57.4176 269.277 57.233C269.874 57.0436 270.501 56.9489 271.159 56.9489C271.595 56.9489 272.056 57.0009 272.544 57.1051C273.036 57.2045 273.496 57.3892 273.922 57.6591C274.353 57.929 274.705 58.3149 274.98 58.8168C275.255 59.3139 275.392 59.9602 275.392 60.7557V68H273.318V66.5085H273.233C273.096 66.7831 272.89 67.053 272.615 67.3182C272.34 67.5833 271.988 67.8035 271.557 67.9787C271.126 68.1539 270.61 68.2415 270.009 68.2415ZM270.47 66.5369C271.057 66.5369 271.559 66.4209 271.976 66.1889C272.397 65.9569 272.717 65.6539 272.935 65.2798C273.157 64.901 273.268 64.4962 273.268 64.0653V62.6591C273.193 62.7348 273.046 62.8059 272.828 62.8722C272.615 62.9337 272.371 62.9882 272.097 63.0355C271.822 63.0781 271.554 63.1184 271.294 63.1562C271.034 63.1894 270.816 63.2178 270.641 63.2415C270.229 63.2936 269.852 63.3812 269.511 63.5043C269.175 63.6274 268.905 63.8049 268.702 64.0369C268.503 64.2642 268.403 64.5672 268.403 64.946C268.403 65.4716 268.598 65.8693 268.986 66.1392C269.374 66.4044 269.869 66.5369 270.47 66.5369ZM280.898 53.4545L280.713 63.8168H278.746L278.561 53.4545H280.898ZM279.733 68.1349C279.34 68.1349 279.004 67.9976 278.725 67.723C278.445 67.4437 278.308 67.1075 278.313 66.7145C278.308 66.3262 278.445 65.9948 278.725 65.7202C279.004 65.4408 279.34 65.3011 279.733 65.3011C280.117 65.3011 280.448 65.4408 280.728 65.7202C281.007 65.9948 281.149 66.3262 281.154 66.7145C281.149 66.9749 281.08 67.214 280.948 67.4318C280.82 67.6449 280.65 67.8153 280.436 67.9432C280.223 68.071 279.989 68.1349 279.733 68.1349Z" fill="#878787"/>
</g>
<defs>
<filter id="filter0_f_3_43" x="0.780006" y="0.18" width="90.44" height="85.64" filterUnits="userSpaceOnUse" color-interpolation-filters="sRGB">
<feFlood flood-opacity="0" result="BackgroundImageFix"/>
<feBlend mode="normal" in="SourceGraphic" in2="BackgroundImageFix" result="shape"/>
<feGaussianBlur stdDeviation="3.41" result="effect1_foregroundBlur_3_43"/>
</filter>
<filter id="filter1_f_3_43" x="7.18" y="6.18" width="77.64" height="73.64" filterUnits="userSpaceOnUse" color-interpolation-filters="sRGB">
<feFlood flood-opacity="0" result="BackgroundImageFix"/>
<feBlend mode="normal" in="SourceGraphic" in2="BackgroundImageFix" result="shape"/>
<feGaussianBlur stdDeviation="3.41" result="effect1_foregroundBlur_3_43"/>
</filter>
<filter id="filter2_f_3_43" x="11.7267" y="10.7267" width="68.5467" height="64.5467" filterUnits="userSpaceOnUse" color-interpolation-filters="sRGB">
<feFlood flood-opacity="0" result="BackgroundImageFix"/>
<feBlend mode="normal" in="SourceGraphic" in2="BackgroundImageFix" result="shape"/>
<feGaussianBlur stdDeviation="1.13667" result="effect1_foregroundBlur_3_43"/>
</filter>
<filter id="filter3_ddi_3_43" x="11.0447" y="12.318" width="69.9107" height="65.9107" filterUnits="userSpaceOnUse" color-interpolation-filters="sRGB">
<feFlood flood-opacity="0" result="BackgroundImageFix"/>
<feColorMatrix in="SourceAlpha" type="matrix" values="0 0 0 0 0 0 0 0 0 0 0 0 0 0 0 0 0 0 127 0" result="hardAlpha"/>
<feOffset dy="1.67917"/>
<feGaussianBlur stdDeviation="0.645833"/>
<feColorMatrix type="matrix" values="0 0 0 0 0 0 0 0 0 0.051 0 0 0 0 0.082 0 0 0 0.7 0"/>
<feBlend mode="multiply" in2="BackgroundImageFix" result="effect1_dropShadow_3_43"/>
<feColorMatrix in="SourceAlpha" type="matrix" values="0 0 0 0 0 0 0 0 0 0 0 0 0 0 0 0 0 0 127 0" result="hardAlpha"/>
<feOffset dy="2.27333"/>
<feGaussianBlur stdDeviation="1.47767"/>
<feColorMatrix type="matrix" values="0 0 0 0 0 0 0 0 0 0.4 0 0 0 0 1 0 0 0 1 0"/>
<feBlend mode="color-dodge" in2="effect1_dropShadow_3_43" result="effect2_dropShadow_3_43"/>
<feBlend mode="normal" in="SourceGraphic" in2="effect2_dropShadow_3_43" result="shape"/>
<feColorMatrix in="SourceAlpha" type="matrix" values="0 0 0 0 0 0 0 0 0 0 0 0 0 0 0 0 0 0 127 0" result="hardAlpha"/>
<feOffset dx="-0.167917" dy="0.335833"/>
<feGaussianBlur stdDeviation="0.0839583"/>
<feComposite in2="hardAlpha" operator="arithmetic" k2="-1" k3="1"/>
<feColorMatrix type="matrix" values="0 0 0 0 1 0 0 0 0 1 0 0 0 0 1 0 0 0 0.5 0"/>
<feBlend mode="normal" in2="shape" result="effect3_innerShadow_3_43"/>
</filter>
<filter id="filter4_f_3_43" x="13.7417" y="12.7417" width="64.5167" height="60.5167" filterUnits="userSpaceOnUse" color-interpolation-filters="sRGB">
<feFlood flood-opacity="0" result="BackgroundImageFix"/>
<feBlend mode="normal" in="SourceGraphic" in2="BackgroundImageFix" result="shape"/>
<feGaussianBlur stdDeviation="0.129167" result="effect1_foregroundBlur_3_43"/>
</filter>
<filter id="filter5_f_3_43" x="13.8278" y="12.8278" width="64.3444" height="60.3444" filterUnits="userSpaceOnUse" color-interpolation-filters="sRGB">
<feFlood flood-opacity="0" result="BackgroundImageFix"/>
<feBlend mode="normal" in="SourceGraphic" in2="BackgroundImageFix" result="shape"/>
<feGaussianBlur stdDeviation="0.0861111" result="effect1_foregroundBlur_3_43"/>
</filter>
<filter id="filter6_d_3_43" x="97.0171" y="16.8068" width="148.916" height="24.9403" filterUnits="userSpaceOnUse" color-interpolation-filters="sRGB">
<feFlood flood-opacity="0" result="BackgroundImageFix"/>
<feColorMatrix in="SourceAlpha" type="matrix" values="0 0 0 0 0 0 0 0 0 0 0 0 0 0 0 0 0 0 127 0" result="hardAlpha"/>
<feOffset/>
<feGaussianBlur stdDeviation="1.75"/>
<feColorMatrix type="matrix" values="0 0 0 0 0.14902 0 0 0 0 0.235294 0 0 0 0 1 0 0 0 1 0"/>
<feBlend mode="normal" in2="BackgroundImageFix" result="effect1_dropShadow_3_43"/>
<feBlend mode="normal" in="SourceGraphic" in2="effect1_dropShadow_3_43" result="shape"/>
</filter>
<filter id="filter7_d_3_43" x="97.098" y="49.9545" width="187.556" height="25.6364" filterUnits="userSpaceOnUse" color-interpolation-filters="sRGB">
<feFlood flood-opacity="0" result="BackgroundImageFix"/>
<feColorMatrix in="SourceAlpha" type="matrix" values="0 0 0 0 0 0 0 0 0 0 0 0 0 0 0 0 0 0 127 0" result="hardAlpha"/>
<feOffset/>
<feGaussianBlur stdDeviation="1.75"/>
<feColorMatrix type="matrix" values="0 0 0 0 0.529167 0 0 0 0 0.529167 0 0 0 0 0.529167 0 0 0 1 0"/>
<feBlend mode="normal" in2="BackgroundImageFix" result="effect1_dropShadow_3_43"/>
<feBlend mode="normal" in="SourceGraphic" in2="effect1_dropShadow_3_43" result="shape"/>
</filter>
</defs>
</svg>
